<svg width="7" height="15" viewBox="0 0 7 15" fill="none" xmlns="http://www.w3.org/2000/svg">
<path d="M2.28516 10.4102C2.28516 9.62891 2.36654 8.99414 2.5293 8.50586C2.69206 8.01758 3.08919 7.39583 3.7207 6.64062L4.4043 5.76172C4.86003 5.1237 5.08789 4.45964 5.08789 3.76953C5.08789 3.08594 4.94466 2.55208 4.6582 2.16797C4.37826 1.77734 3.97461 1.58203 3.44727 1.58203C2.95247 1.58203 2.53906 1.75781 2.20703 2.10938C1.88151 2.46094 1.71875 2.93294 1.71875 3.52539H0C0.0130208 2.45117 0.338542 1.59505 0.976562 0.957031C1.61458 0.31901 2.43815 0 3.44727 0C4.49544 0 5.31901 0.328776 5.91797 0.986328C6.51693 1.64388 6.81641 2.55208 6.81641 3.71094C6.81641 4.81771 6.36393 5.92773 5.45898 7.04102L4.56055 8.125C4.18945 8.65234 4.00391 9.41406 4.00391 10.4102H2.28516ZM3.22266 12.4707C3.54818 12.4707 3.79232 12.5716 3.95508 12.7734C4.12435 12.9688 4.20898 13.2129 4.20898 13.5059C4.20898 13.7988 4.12435 14.043 3.95508 14.2383C3.79232 14.4271 3.54818 14.5215 3.22266 14.5215C2.89062 14.5215 2.64323 14.4271 2.48047 14.2383C2.32422 14.043 2.24609 13.7988 2.24609 13.5059C2.24609 13.2129 2.32422 12.9688 2.48047 12.7734C2.64323 12.5716 2.89062 12.4707 3.22266 12.4707Z" fill="#E7E7E7"/>
</svg>
