<svg width="260" height="112" viewBox="0 0 260 112" fill="none" xmlns="http://www.w3.org/2000/svg">
<path fill-rule="evenodd" clip-rule="evenodd" d="M4.70749 111.195C3.23734 111.591 1.66698 111.487 0 110.859L0.458191 109.643C1.90803 110.189 3.19855 110.256 4.3694 109.94C5.54633 109.623 6.65779 108.905 7.71695 107.79C9.85201 105.543 11.6855 101.779 13.3253 96.8814C16.2377 88.1829 18.4505 76.1994 20.7801 63.5832C21.0697 62.0146 21.3612 60.4362 21.656 58.8532C24.3148 44.5769 27.2463 29.934 31.6104 18.8575C33.7926 13.3188 36.3515 8.62178 39.452 5.30101C42.5651 1.96667 46.2463 0 50.6281 0C54.5849 0 58.0408 1.82938 61.0739 4.92574C64.0985 8.0134 66.7356 12.3913 69.0871 17.584C73.7901 27.9697 77.4254 41.789 80.691 55.5468C81.4765 58.8559 82.2405 62.161 82.9928 65.4156C85.3755 75.7232 87.6412 85.5247 90.1017 93.3466C91.7208 98.4936 93.4088 102.73 95.2427 105.669C96.5344 107.739 97.8397 109.074 99.1733 109.692L99.1917 109.643C100.642 110.189 101.932 110.256 103.103 109.94C104.28 109.623 105.391 108.905 106.45 107.79C108.586 105.543 110.419 101.779 112.059 96.8816C114.971 88.1831 117.184 76.1996 119.514 63.5833C119.803 62.0147 120.095 60.4364 120.39 58.8534C123.048 44.5771 125.98 29.9343 130.344 18.8577C132.526 13.319 135.085 8.62199 138.186 5.30122C141.299 1.96688 144.98 0.000211596 149.362 0.000211596C153.319 0.000211596 156.768 1.82997 159.79 4.92719C162.803 8.0155 165.423 12.3941 167.754 17.5873C172.417 27.9739 175.998 41.7942 179.21 55.5529C179.981 58.8553 180.731 62.1538 181.469 65.402L181.471 65.4113L181.474 65.4226L181.474 65.4227C183.816 75.7308 186.044 85.5327 188.474 93.3549C190.073 98.5023 191.744 102.739 193.566 105.678C194.849 107.747 196.148 109.081 197.479 109.699L197.499 109.646C198.948 110.191 200.247 110.259 201.436 109.942C202.63 109.624 203.766 108.904 204.854 107.787C207.047 105.537 208.962 101.77 210.7 96.8726C213.799 88.1418 216.246 76.1015 218.82 63.4343L218.821 63.4339L218.831 63.3843C219.137 61.8779 219.445 60.3627 219.756 58.8432C222.679 44.5664 225.875 29.9242 230.438 18.8486C232.72 13.3102 235.362 8.61525 238.52 5.29666C241.689 1.96561 245.402 0 249.783 0C253.739 0 257.195 1.82938 260.228 4.92574C263.253 8.0134 265.89 12.3913 268.242 17.584C272.945 27.9697 276.58 41.789 279.846 55.5468C280.631 58.8559 281.395 62.161 282.147 65.4156L282.148 65.4165C284.53 75.7238 286.796 85.5249 289.256 93.3466C290.875 98.4936 292.563 102.73 294.397 105.669C296.25 108.637 298.13 110.094 300.081 110.094V111.394C297.418 111.394 295.199 109.41 293.294 106.357C291.371 103.275 289.644 98.9109 288.016 93.7366C285.539 85.8619 283.257 75.9882 280.871 65.6674L280.868 65.6554C280.119 62.4139 279.36 59.1284 278.581 55.847C275.313 42.0814 271.702 28.3772 267.057 18.1203C264.735 12.9918 262.173 8.76853 259.3 5.83545C256.435 2.91105 253.295 1.3 249.783 1.3C245.841 1.3 242.449 3.05297 239.462 6.19278C236.462 9.34503 233.894 13.8731 231.64 19.3438C227.132 30.2863 223.957 44.8058 221.029 59.1039C220.715 60.6405 220.403 62.1746 220.093 63.7014C217.524 76.3438 215.057 88.4834 211.925 97.3075C210.172 102.245 208.182 106.234 205.785 108.694C204.578 109.932 203.247 110.805 201.77 111.199C200.952 111.416 200.105 111.483 199.231 111.393V111.401C196.567 111.401 194.355 109.416 192.461 106.363C190.55 103.28 188.84 98.9152 187.232 93.7406C184.786 85.8653 182.542 75.9908 180.196 65.6693L180.196 65.6684C179.459 62.4232 178.711 59.1338 177.944 55.8484C174.731 42.0818 171.173 28.3769 166.568 18.1197C164.266 12.9909 161.721 8.76785 158.859 5.83502C156.007 2.9111 152.873 1.30021 149.362 1.30021C145.421 1.30021 142.064 3.05205 139.136 6.1884C136.195 9.33833 133.709 13.8642 131.553 19.3343C127.243 30.2753 124.33 44.7935 121.668 59.0914C121.373 60.6739 121.081 62.2539 120.791 63.8259C118.466 76.4183 116.235 88.5021 113.292 97.2943C111.639 102.232 109.733 106.223 107.393 108.686C106.215 109.926 104.905 110.801 103.441 111.196C102.633 111.413 101.795 111.48 100.927 111.391V111.394C98.2635 111.394 96.0447 109.41 94.1398 106.357C92.2165 103.275 90.4893 98.9109 88.8616 93.7367C86.3845 85.8619 84.1022 75.9882 81.7166 65.6674L81.7162 65.666C80.9662 62.4211 80.2059 59.132 79.4262 55.847C76.1587 42.0814 72.5475 28.3772 67.9028 18.1203C65.5805 12.9918 63.0184 8.76853 60.1452 5.83545C57.2806 2.91105 54.1399 1.3 50.6281 1.3C46.6871 1.3 43.3305 3.05184 40.4022 6.18819C37.4612 9.33812 34.975 13.864 32.8199 19.334C28.5092 30.2751 25.5968 44.7933 22.934 59.0912C22.6393 60.6737 22.3476 62.2537 22.0574 63.8257C19.7327 76.4181 17.5018 88.5019 14.5581 97.2941C12.905 102.231 10.999 106.223 8.65942 108.686C7.48125 109.926 6.17157 110.801 4.70749 111.195Z" fill="white" fill-opacity="0.8"/>
</svg>
